<?xml version="1.0" standalone="no"?>
<!DOCTYPE svg PUBLIC "-//W3C//DTD SVG 20010904//EN"
 "http://www.w3.org/TR/2001/REC-SVG-20010904/DTD/svg10.dtd">
<svg version="1.0" xmlns="http://www.w3.org/2000/svg"
 width="800.000000pt" height="924.000000pt" viewBox="0 0 800.000000 924.000000"
 preserveAspectRatio="xMidYMid meet">
<metadata>
Created by potrace 1.16, written by Peter Selinger 2001-2019
</metadata>
<g transform="translate(0.000000,924.000000) scale(0.100000,-0.100000)"
fill="#000000" stroke="none">
<path d="M3433 9111 c-23 -4 -65 -22 -93 -39 -28 -18 -64 -32 -80 -32 -35 0
-155 -27 -192 -43 -23 -10 -28 -18 -28 -49 0 -57 46 -189 80 -229 31 -39 175
-129 275 -173 l61 -27 94 44 c52 24 130 56 173 72 42 15 77 32 77 36 0 5 -2 9
-4 9 -17 0 -196 -70 -261 -101 l-80 -40 -110 56 c-129 65 -198 113 -226 158
-26 42 -59 150 -59 193 0 29 4 35 28 40 15 3 54 13 87 21 51 13 77 13 170 3
114 -13 167 -26 248 -65 26 -12 47 -19 47 -15 0 14 159 80 265 110 163 46 327
42 354 -9 15 -27 34 -229 28 -284 -7 -58 -45 -144 -87 -197 l-30 -38 -68 20
c-86 26 -110 38 -207 109 -80 58 -197 119 -225 119 -8 0 -33 -12 -55 -25 -77
-48 -132 -30 -325 104 -57 39 -109 71 -115 71 -18 0 -48 -37 -40 -50 4 -7 12
-3 23 10 17 21 17 21 97 -34 227 -156 271 -170 368 -121 l54 28 58 -27 c32
-14 101 -57 154 -96 103 -73 120 -82 220 -110 l65 -18 37 40 c35 39 37 40 44
18 12 -36 75 -100 127 -126 103 -52 288 -78 321 -45 9 9 -2 10 -43 5 -59 -6
-187 20 -265 56 -39 17 -97 72 -126 119 -14 22 -13 29 9 85 31 75 36 133 24
256 -7 70 -7 97 2 103 25 18 348 -14 418 -41 21 -9 28 -21 37 -62 10 -47 15
-110 8 -110 -2 0 -41 20 -88 44 -97 50 -200 72 -287 62 -98 -12 -84 -21 31
-22 126 -1 182 -17 295 -85 59 -36 216 -163 255 -206 17 -20 17 -20 -23 -27
-107 -17 -212 -98 -226 -174 -12 -62 -1 -67 128 -63 l115 3 7 -32 c3 -18 6
-41 6 -51 0 -11 14 -48 30 -82 17 -35 30 -68 30 -74 0 -20 58 -89 98 -116 l41
-29 38 28 c21 15 50 39 65 52 31 29 53 26 116 -15 38 -25 42 -31 42 -67 l0
-40 -30 29 c-25 24 -28 30 -15 35 21 7 -53 50 -86 50 -24 -1 -24 -1 -3 -13 11
-7 46 -42 77 -79 47 -55 54 -68 42 -78 -8 -6 -26 -33 -41 -58 -15 -26 -28 -48
-29 -49 -1 -2 -48 13 -106 31 -57 19 -153 49 -214 66 -60 17 -144 44 -185 58
-67 24 -89 27 -195 26 -115 -1 -279 -25 -317 -45 -26 -14 -22 -33 15 -66 33
-29 82 -46 242 -84 128 -30 417 -183 540 -286 41 -34 81 -65 88 -70 26 -15 67
-112 92 -219 68 -286 113 -704 94 -879 -4 -44 -9 -114 -10 -155 -2 -56 -4 -40
-10 65 -3 77 -7 162 -8 189 0 27 -4 46 -8 43 -4 -4 -7 -209 -8 -455 -1 -435
-2 -450 -25 -544 -13 -54 -27 -98 -31 -98 -4 0 -9 15 -12 33 -3 17 -37 158
-75 312 -39 154 -74 294 -78 310 -7 29 -8 29 -12 6 -2 -14 11 -86 28 -161 l33
-136 -55 -140 c-31 -76 -59 -150 -63 -164 -4 -14 -13 -38 -20 -55 -38 -90
-103 -345 -106 -410 -1 -26 -6 -18 -40 50 -55 113 -83 208 -70 234 15 27 14
41 -3 35 -22 -8 -29 96 -13 193 13 75 20 91 94 205 72 111 193 325 193 342 0
3 -4 6 -10 6 -5 0 -34 -49 -65 -109 -52 -103 -282 -462 -304 -475 -5 -4 1 26
15 66 32 92 50 291 58 628 3 134 10 248 15 253 5 5 55 -2 122 -17 134 -31 270
-48 283 -36 5 5 -3 11 -20 15 -65 13 -216 80 -319 142 l-111 66 -18 111 c-36
222 -86 382 -198 631 -27 61 -71 146 -98 190 -26 44 -80 141 -120 215 -97 181
-170 277 -352 456 -220 218 -363 330 -477 373 -79 30 -60 6 32 -39 109 -53
238 -158 425 -343 202 -200 277 -297 370 -483 28 -54 74 -140 103 -189 90
-151 201 -412 245 -575 21 -76 64 -292 64 -322 0 -10 -65 29 -145 87 -136 99
-565 524 -565 561 0 7 -40 61 -111 149 -140 174 -300 468 -370 682 -24 73 -47
133 -52 133 -10 0 -1 -37 45 -175 63 -189 210 -459 341 -627 35 -46 77 -103
93 -128 51 -81 105 -141 299 -333 246 -244 426 -377 694 -514 57 -29 99 -53
93 -53 -45 0 -384 89 -520 137 -40 14 -116 50 -168 80 -52 30 -100 53 -105 51
-17 -6 179 -121 251 -148 46 -17 124 -76 199 -149 l60 -59 -6 -101 c-6 -95 -7
-101 -28 -101 -37 0 -221 67 -327 119 -57 28 -115 53 -129 55 -54 11 -471 296
-657 449 -40 33 -76 57 -80 53 -3 -4 3 -15 14 -24 268 -216 472 -361 707 -499
43 -25 77 -47 75 -48 -7 -7 -215 38 -228 49 -8 7 -34 20 -57 29 -49 19 -263
138 -308 172 -16 12 -73 49 -126 82 -90 57 -248 171 -295 214 -26 22 -33 24
-30 6 3 -24 209 -290 295 -382 46 -49 21 -27 -55 50 -134 134 -210 227 -317
385 -27 39 -51 69 -54 66 -3 -3 6 -24 21 -47 15 -22 26 -42 24 -44 -3 -2 -221
-26 -268 -29 -21 -1 -36 15 -92 99 -37 55 -92 154 -122 220 -51 114 -146 381
-146 411 0 8 -5 14 -10 14 -6 0 -8 -12 -4 -27 8 -39 33 -129 41 -149 4 -11 2
-15 -4 -11 -30 19 -56 -477 -34 -663 10 -90 10 -96 -9 -112 -11 -9 -16 -19
-11 -22 5 -4 12 -2 16 4 14 22 23 7 34 -52 18 -106 42 -340 36 -358 -9 -29
-43 -53 -75 -54 -42 -1 -39 -19 5 -28 44 -10 137 -49 131 -56 -3 -2 4 -23 15
-46 l20 -41 -21 27 c-46 59 -58 73 -63 68 -3 -3 19 -41 49 -85 71 -106 284
-321 381 -385 46 -30 69 -50 58 -50 -66 0 -159 25 -233 61 -71 35 -99 57 -199
157 -139 141 -199 217 -223 282 -9 26 -31 68 -48 92 -61 89 -129 271 -157 423
-27 148 -30 158 -42 162 -8 3 -9 -7 -3 -34 5 -21 16 -78 25 -128 25 -132 69
-263 140 -410 75 -155 135 -238 281 -388 123 -125 198 -178 292 -207 70 -22
232 -38 232 -24 0 5 -17 20 -38 33 -20 14 -61 41 -91 60 -73 48 -323 301 -316
319 3 8 -6 35 -20 59 l-25 45 28 -7 c15 -4 30 -11 33 -17 4 -6 18 -9 32 -6 35
7 56 -7 39 -24 -6 -6 -12 -16 -12 -20 0 -13 27 -9 42 5 7 7 21 16 31 20 27 10
20 24 -17 31 -50 10 -119 60 -139 102 -18 36 -18 37 7 74 28 42 124 140 137
140 5 0 9 -27 9 -60 0 -94 49 -170 132 -204 104 -44 236 12 266 111 18 62 15
143 -7 179 l-19 32 33 4 c19 2 42 -2 52 -10 71 -53 186 -102 298 -127 66 -15
128 -29 138 -32 9 -2 17 0 17 6 0 6 -10 13 -22 16 -267 58 -309 76 -528 231
-129 91 -213 169 -275 255 l-35 49 100 0 c75 0 101 3 107 14 4 8 24 17 43 21
31 6 37 3 52 -22 71 -121 355 -421 438 -463 31 -16 84 -51 117 -79 34 -29 64
-47 67 -42 3 5 -27 35 -67 67 -82 66 -249 225 -279 267 -16 23 -2 16 82 -37
110 -70 290 -147 457 -195 116 -33 291 -67 300 -57 4 3 -4 18 -18 32 -20 23
-9 19 71 -24 90 -47 274 -112 319 -112 20 0 21 -5 21 -82 0 -46 -7 -153 -15
-239 -13 -131 -21 -173 -51 -255 -19 -55 -48 -123 -65 -151 -16 -29 -29 -55
-29 -58 0 -20 27 11 99 115 46 66 85 119 87 117 2 -2 -1 -29 -7 -61 -9 -42 -9
-73 0 -124 l11 -67 -52 -49 c-64 -58 -197 -158 -333 -250 -55 -37 -131 -90
-170 -117 -74 -54 -171 -106 -220 -120 -47 -14 -172 33 -300 111 -117 71 -231
135 -463 261 -182 99 -254 161 -327 283 -30 50 -61 99 -69 109 -32 41 -36 0
-5 -43 12 -16 22 -37 23 -47 1 -10 18 -50 38 -89 20 -38 41 -96 47 -128 17
-90 35 -405 27 -459 l-7 -48 -35 71 c-43 91 -167 304 -261 449 -75 116 -186
259 -300 387 l-63 71 0 120 c0 66 4 142 9 169 16 85 24 200 13 189 -23 -25
-44 -273 -40 -474 4 -231 -3 -225 -47 32 -20 120 -25 185 -26 330 0 100 -4
191 -9 202 -5 12 -9 -59 -9 -181 -1 -171 3 -223 24 -350 28 -165 50 -244 69
-244 7 0 17 -29 25 -70 18 -97 99 -338 149 -438 l41 -83 -47 42 c-107 98 -183
192 -223 276 -88 185 -143 384 -159 579 -5 63 -11 118 -14 123 -3 4 -30 129
-60 277 -31 148 -58 279 -62 292 -8 26 -19 29 -21 4 -1 -14 -86 -363 -109
-450 l-6 -22 -37 21 c-20 12 -47 32 -60 45 l-24 23 20 53 c12 29 38 92 59 141
35 78 42 87 66 87 37 0 58 10 58 27 0 9 -6 12 -17 9 -70 -20 -71 -20 -144 40
-110 90 -199 221 -199 292 0 29 125 208 227 324 168 192 314 317 436 374 111
51 114 20 18 -155 -124 -226 -211 -405 -232 -476 -12 -38 -32 -105 -45 -148
-25 -82 -30 -117 -15 -117 8 0 45 107 71 210 21 82 72 193 198 427 98 185 123
239 120 265 -3 31 -6 33 -45 36 -46 3 -108 -23 -205 -89 l-58 -39 0 52 c0 44
11 74 81 215 45 90 78 167 74 171 -4 4 -39 -27 -79 -69 -62 -67 -123 -119
-139 -119 -8 0 48 208 76 280 49 128 73 174 80 156 13 -32 7 -67 -23 -154 -16
-48 -34 -109 -39 -137 -5 -27 -13 -59 -17 -70 -6 -18 -5 -19 9 -5 9 9 21 39
27 68 5 29 26 99 45 156 19 57 33 110 30 118 -3 8 5 44 19 79 l25 64 -4 -179
c-3 -174 7 -217 20 -90 l7 61 78 22 c42 11 84 21 92 21 8 0 23 7 34 15 18 15
16 15 -26 9 -25 -4 -75 -16 -112 -28 l-66 -22 -5 26 c-3 14 -2 59 2 100 4 41
4 78 -1 81 -9 6 26 41 60 58 16 9 27 9 43 0 30 -16 61 -92 62 -155 2 -54 12
-69 24 -37 8 21 -11 112 -33 159 -25 52 -55 69 -98 54 -48 -15 -90 -67 -117
-141 l-23 -62 -19 44 c-27 65 -33 190 -13 280 19 87 70 159 138 197 63 34 69
30 42 -35 -26 -65 -29 -91 -13 -127 15 -33 43 -43 179 -61 63 -8 136 -22 162
-31 44 -14 116 -16 78 -2 -60 22 -137 40 -245 54 -69 9 -132 22 -141 28 -12 9
-7 11 25 8 92 -9 363 120 458 218 38 39 39 37 46 -78 6 -91 -5 -144 -34 -175
-20 -22 -25 -37 -10 -37 14 0 58 73 64 105 3 17 1 75 -4 130 -5 55 -11 114
-12 130 -3 39 -43 54 -148 54 -95 1 -104 -7 -89 -75 18 -82 31 -114 46 -114
12 0 13 4 3 23 -16 29 -39 128 -33 139 6 10 139 9 174 -1 51 -15 12 -78 -88
-144 -69 -45 -172 -101 -177 -95 -1 2 -10 19 -20 38 -9 19 -33 52 -53 73 -42
44 -64 46 -162 17 -56 -17 -75 -29 -117 -73 -58 -61 -80 -99 -89 -155 -5 -34
-13 -44 -60 -73 -96 -60 -97 -60 -102 -122 -3 -38 3 -89 18 -154 l22 -96 -23
-18 c-20 -15 -117 -56 -170 -72 -9 -3 -21 -25 -28 -51 -13 -51 -15 -366 -3
-366 5 0 10 73 11 163 2 194 10 232 48 242 15 3 61 23 103 42 41 20 79 35 84
34 5 -1 6 8 3 21 -3 13 -15 59 -26 103 -12 44 -21 104 -21 133 0 59 14 77 88
119 l39 22 6 -87 c3 -48 11 -102 18 -120 10 -29 8 -40 -21 -105 -45 -99 -94
-248 -110 -332 -16 -83 -21 -90 -68 -106 -20 -6 -41 -15 -45 -19 -4 -4 1 -31
12 -61 12 -30 21 -56 21 -59 0 -3 -37 -3 -82 -1 -96 4 -178 -12 -203 -39 -38
-42 10 -205 82 -282 38 -40 27 -77 -61 -209 -67 -99 -76 -118 -76 -158 0 -27
10 -67 24 -96 28 -61 108 -158 170 -205 25 -19 45 -41 46 -47 0 -7 7 -13 15
-13 10 0 2 -26 -31 -97 -73 -154 -79 -178 -59 -209 9 -14 41 -41 72 -60 62
-40 58 -22 33 -175 -8 -49 -9 -91 -3 -119 l9 -44 99 -42 c220 -91 197 -69 257
-238 21 -61 60 -154 85 -205 40 -83 59 -109 157 -209 102 -105 160 -151 173
-138 3 3 -4 17 -15 33 -64 91 -161 344 -203 528 -11 50 -23 131 -26 180 l-5
90 23 -32 c13 -17 76 -96 140 -175 211 -259 478 -706 479 -800 0 -42 18 -34
32 15 14 47 15 301 0 424 l-8 71 61 -43 c71 -51 256 -145 284 -145 29 0 34
-17 8 -24 -31 -7 -174 -136 -230 -206 -24 -31 -59 -78 -76 -107 -36 -59 -104
-248 -122 -343 l-13 -65 -135 -133 c-83 -81 -161 -148 -201 -172 -36 -21 -89
-60 -118 -87 l-52 -48 9 -80 c5 -44 21 -120 34 -170 14 -49 31 -114 39 -144 7
-30 18 -56 24 -58 6 -2 -7 69 -31 164 -24 92 -45 194 -47 226 l-5 58 49 44
c27 25 74 58 104 75 57 33 282 235 322 290 13 17 33 68 43 112 23 98 69 229
103 296 59 117 233 298 321 333 93 38 94 38 175 -5 41 -22 123 -70 181 -106
58 -36 134 -75 169 -85 l64 -19 -79 -12 c-43 -7 -84 -19 -91 -26 -17 -18 -164
-302 -164 -318 0 -29 28 16 100 159 51 101 81 151 95 155 11 3 52 9 92 12 70
7 72 6 66 -15 -3 -13 6 -46 26 -85 17 -36 31 -78 30 -97 0 -19 -3 -27 -6 -19
-9 24 -35 50 -50 50 -10 0 -7 -9 11 -31 22 -26 26 -40 26 -93 0 -81 -25 -167
-51 -173 -10 -3 -19 -10 -19 -15 0 -6 9 -8 20 -5 11 3 20 3 20 1 0 -3 -16 -36
-35 -74 -38 -76 -40 -80 -25 -80 5 0 30 39 55 88 l46 87 -5 -244 c-3 -134 -8
-246 -11 -249 -3 -3 -27 -9 -53 -13 -26 -3 -76 -14 -112 -22 -36 -9 -93 -21
-128 -27 -35 -6 -70 -14 -79 -17 -12 -5 -14 -1 -8 18 13 42 80 170 164 308 73
122 88 151 77 151 -5 0 -65 -93 -136 -210 -82 -135 -144 -270 -132 -282 7 -7
35 -4 80 6 95 21 94 22 90 -20 -3 -36 -4 -37 -98 -75 -193 -79 -376 -129 -474
-129 l-38 0 6 68 c4 37 16 99 26 137 10 39 25 102 34 140 27 119 36 145 50
145 7 0 72 30 145 66 103 51 131 70 127 82 -10 30 -55 190 -58 202 -6 26 153
67 320 84 l52 5 0 -35 c0 -40 24 -104 39 -104 14 0 14 2 -4 36 -24 46 -19 132
10 189 13 27 23 51 20 53 -9 9 -25 -12 -46 -62 -24 -59 -35 -66 -105 -66 -57
0 -134 -16 -231 -47 -84 -26 -93 -35 -74 -72 5 -9 20 -55 34 -102 l24 -86
-114 -58 c-62 -32 -124 -58 -138 -58 -22 1 -27 -7 -46 -69 -16 -52 -29 -74
-53 -92 -32 -24 -146 -79 -146 -70 0 3 7 18 15 34 8 16 11 30 7 32 -5 2 16 77
45 168 51 155 93 309 93 338 0 28 -18 0 -24 -36 -3 -22 -40 -144 -81 -272 -41
-129 -75 -239 -75 -245 0 -16 -93 -110 -178 -180 -72 -59 -149 -143 -145 -157
3 -9 -61 -60 -179 -142 -54 -37 -100 -71 -103 -77 -4 -5 -17 -9 -31 -9 -15 0
-24 -5 -22 -12 2 -11 -60 -106 -104 -159 -27 -32 -97 -186 -113 -249 -10 -38
-18 -108 -19 -170 -1 -98 1 -110 33 -183 25 -60 51 -96 110 -159 114 -122 264
-266 318 -306 55 -39 202 -112 229 -113 11 0 -3 -7 -31 -14 -49 -14 -51 -13
-90 16 -68 49 -156 100 -188 106 -22 5 -33 1 -44 -12 -34 -48 -2 -145 86 -254
34 -43 51 -73 51 -92 0 -44 17 -78 50 -98 23 -14 27 -20 16 -24 -31 -12 34
-193 81 -225 13 -8 23 -23 23 -34 0 -55 70 -98 156 -97 38 1 55 7 76 27 l27
25 20 -24 c11 -13 20 -27 21 -31 0 -13 -43 -20 -87 -13 -30 4 -43 3 -39 -4 4
-6 -8 -13 -28 -17 -87 -16 -71 -87 47 -213 26 -28 54 -51 62 -51 14 0 30 -18
23 -25 -2 -3 -18 -1 -34 4 -16 4 -43 6 -59 4 -28 -4 -31 -9 -47 -77 -10 -40
-18 -91 -18 -114 0 -33 -5 -44 -22 -53 -32 -16 -31 -15 -17 -41 7 -12 22 -57
34 -98 15 -54 26 -76 39 -78 11 -3 44 22 91 67 69 67 95 84 95 61 0 -10 82 -6
100 5 17 10 11 40 -19 100 l-29 57 18 56 c10 31 26 61 34 68 20 14 20 24 1 24
-27 0 -69 -109 -93 -240 l-8 -45 -31 46 c-48 69 -52 71 -109 54 -27 -8 -52
-15 -56 -15 -13 0 -9 68 8 136 l17 65 46 -3 46 -3 1 -50 c2 -91 4 -105 14
-105 6 0 13 8 16 18 21 71 102 172 138 172 18 0 39 -33 58 -92 l16 -46 -34 20
c-56 33 -60 15 -4 -20 47 -29 70 -38 70 -28 0 2 -14 41 -31 85 -36 94 -61 119
-95 96 -13 -8 -29 -13 -36 -10 -8 3 -19 -8 -27 -26 l-14 -31 -22 28 -23 29 46
10 c26 6 53 14 60 18 28 18 4 198 -31 233 -13 13 -7 -33 8 -69 8 -20 15 -63
15 -95 l0 -59 -37 -7 c-21 -3 -53 -6 -71 -6 l-32 0 20 39 c11 22 24 42 30 46
17 10 11 39 -18 98 l-28 55 33 7 c46 8 49 21 14 66 -27 32 -30 42 -21 59 15
28 -3 108 -39 179 l-28 54 -20 -39 c-24 -48 -45 -50 -58 -6 -7 25 -14 32 -27
29 -21 -6 -21 -6 -47 61 -23 57 -18 63 24 30 26 -20 26 -22 9 -29 -18 -7 -18
-8 1 -8 11 -1 38 -10 59 -22 21 -11 41 -18 44 -15 3 3 3 8 1 9 -76 64 -130
102 -168 122 -54 27 -61 38 -61 98 0 23 -7 48 -16 58 -12 14 -13 22 -4 38 6
12 7 21 3 22 -4 0 8 7 27 14 19 7 62 14 96 14 90 1 91 0 130 -231 8 -53 13
-106 9 -117 -8 -25 10 -28 20 -3 7 19 -19 212 -40 286 l-14 48 37 -43 c125
-149 232 -237 347 -284 l60 -25 -61 0 c-91 0 -92 -5 -55 -151 32 -123 55 -178
88 -214 11 -13 19 -39 21 -70 4 -77 14 -147 23 -175 5 -14 36 -50 69 -80 l61
-55 3 -95 c4 -119 20 -176 57 -216 29 -30 29 -32 17 -77 -20 -75 16 -123 101
-134 33 -5 42 -11 50 -34 5 -16 15 -29 20 -29 15 0 13 9 -8 49 -15 28 -24 34
-54 36 -39 2 -85 27 -94 52 -3 8 0 38 7 65 12 49 12 50 -19 82 -36 37 -47 70
-57 166 l-6 68 46 7 c28 5 67 2 103 -7 l58 -14 13 -59 c8 -33 24 -98 37 -145
18 -66 21 -88 12 -99 -10 -12 -9 -14 5 -9 22 9 25 -3 34 -106 4 -47 11 -86 15
-86 23 0 -2 200 -33 268 -10 24 -28 84 -39 132 -10 49 -41 147 -68 217 -28 70
-70 186 -95 258 -39 110 -44 130 -31 138 8 4 15 15 15 24 0 12 -3 13 -14 4
-20 -16 -26 6 -26 92 0 104 9 147 30 147 14 0 20 -15 28 -77 6 -43 14 -121 17
-173 11 -170 59 -347 151 -555 56 -128 80 -224 89 -352 7 -93 17 -135 29 -123
3 3 -2 66 -9 139 -14 126 -45 250 -82 323 -13 27 -13 28 14 17 14 -5 40 -7 57
-3 42 9 106 42 106 55 0 6 5 7 10 4 18 -11 11 -127 -10 -174 -11 -24 -20 -47
-20 -51 0 -4 16 -11 35 -14 67 -13 83 -62 45 -137 l-21 -40 48 -60 c43 -53 63
-70 63 -53 0 3 -18 29 -40 56 -22 28 -40 54 -40 58 0 4 7 24 15 43 21 51 19
99 -5 125 -12 12 -26 22 -33 22 -32 1 -37 15 -21 63 16 46 15 83 -2 224 -6 51
-7 53 -37 53 -18 0 -39 -5 -47 -10 -11 -7 -5 -10 24 -10 l39 0 -7 -42 c-10
-61 -24 -74 -48 -46 -29 33 -35 54 -43 142 l-7 77 36 -6 c34 -7 36 -6 36 19 0
15 -7 43 -16 64 -11 25 -15 63 -14 115 1 83 -17 129 -63 162 -30 21 -44 19
-24 -3 22 -24 21 -32 -1 -32 -29 0 -30 7 -15 63 l15 52 50 -4 51 -3 -6 62 c-8
76 -19 92 -53 79 -49 -18 -48 -7 1 16 28 13 58 30 68 38 34 28 16 27 -44 -4
-94 -47 -186 -66 -319 -64 -104 1 -125 5 -216 37 -129 45 -220 105 -323 214
-130 137 -195 248 -193 331 0 49 -4 54 -18 18 -11 -30 16 -125 53 -185 l22
-35 -27 17 c-14 10 -48 23 -75 29 -66 16 -197 82 -262 131 -74 56 -320 302
-358 358 -17 25 -43 79 -58 120 -24 67 -26 84 -21 159 9 120 30 202 76 290
l40 77 86 11 c47 7 96 18 108 26 12 8 53 27 91 42 90 35 129 65 152 115 10 22
21 40 25 40 18 0 91 -187 84 -214 -3 -12 -23 -41 -45 -65 -21 -25 -54 -70 -73
-100 -31 -52 -33 -60 -32 -146 1 -137 38 -287 91 -366 31 -48 43 -49 43 -6 0
61 39 188 82 269 68 127 176 203 324 229 86 15 194 7 264 -20 61 -23 70 -25
70 -12 0 19 -117 53 -200 58 -101 6 -186 -8 -256 -42 -40 -20 -67 -25 -123
-25 -83 0 -109 11 -165 68 l-38 40 41 54 c23 30 41 62 41 72 0 27 -57 168 -88
217 l-29 45 19 34 c13 24 18 48 15 76 -3 30 1 48 14 65 10 13 19 29 19 36 0 6
26 33 58 59 31 26 78 68 103 92 29 27 88 64 158 97 61 30 111 52 111 49 0 -3
-11 -50 -25 -103 -14 -54 -26 -132 -27 -172 l-3 -74 48 -3 48 -3 -7 -47 c-3
-26 -9 -52 -13 -58 -3 -7 -42 -36 -85 -65 -111 -74 -256 -219 -289 -289 -28
-59 -46 -137 -30 -127 5 3 18 33 27 65 10 33 38 85 61 117 49 64 191 189 276
241 59 35 62 41 74 125 l7 47 51 6 c125 17 462 145 473 181 5 14 15 -12 34
-85 40 -158 53 -200 63 -200 4 0 19 13 32 28 13 15 54 46 92 69 82 49 341 220
401 265 47 35 62 30 62 -22 0 -61 54 -241 100 -339 41 -85 48 -107 38 -120 -7
-9 -37 -45 -68 -81 -79 -91 -106 -137 -142 -243 -31 -89 -32 -97 -32 -267 0
-96 5 -222 11 -280 6 -58 10 -106 9 -107 -1 -1 -33 26 -70 60 -69 63 -69 63
-58 96 18 51 14 140 -8 188 -11 25 -35 53 -59 70 -23 15 -44 39 -47 53 -12 44
-44 80 -96 106 -55 28 -55 28 -326 5 -102 -8 -132 -14 -178 -38 -67 -34 -94
-57 -94 -82 0 -12 -11 -23 -29 -29 -21 -7 -36 -26 -57 -68 -46 -94 -33 -221
32 -315 34 -49 115 -93 160 -86 36 6 114 -18 127 -40 32 -52 160 -99 236 -88
97 14 166 62 177 122 5 26 10 32 24 28 17 -5 65 39 100 94 l16 23 78 -75 c75
-73 79 -78 90 -140 l12 -65 -67 -88 c-37 -48 -85 -118 -105 -154 -26 -44 -65
-89 -122 -140 -104 -93 -116 -114 -109 -194 5 -65 45 -192 74 -235 10 -14 16
-34 15 -43 -5 -27 111 -189 190 -268 97 -97 106 -88 13 12 -91 98 -191 241
-180 258 4 7 -2 25 -14 41 -31 42 -81 199 -81 255 0 59 19 86 139 189 50 43
88 82 85 86 -14 24 165 263 261 349 33 29 72 72 86 95 15 23 48 60 73 82 45
39 66 74 156 253 64 127 86 262 56 335 -13 31 -19 35 -51 35 -49 0 -82 -19
-137 -78 -84 -90 -109 -169 -113 -362 -3 -132 -6 -146 -49 -265 -7 -17 -5 -17
13 3 36 41 52 118 57 261 5 175 27 257 96 342 34 42 95 79 132 79 32 0 46 -30
46 -96 0 -78 -31 -174 -103 -314 -54 -106 -79 -144 -117 -178 -27 -23 -62 -65
-79 -92 -17 -28 -37 -50 -45 -50 -7 0 -34 -22 -59 -49 l-46 -49 -11 67 c-15
96 -30 275 -37 441 -5 129 -3 156 17 235 32 129 68 196 170 318 153 181 372
387 411 387 8 0 37 19 64 42 52 43 157 96 285 143 62 23 92 28 175 29 141 1
211 -16 255 -64 41 -45 180 -270 237 -385 69 -137 93 -216 99 -329 6 -102 -15
-377 -36 -470 -13 -58 -50 -368 -50 -418 0 -39 -8 -46 -28 -26 -17 17 -15 3 7
-40 21 -42 89 -246 121 -367 12 -44 42 -132 67 -195 57 -143 63 -183 35 -213
-11 -12 -40 -51 -64 -87 -212 -313 -232 -339 -269 -340 -9 0 -19 -9 -22 -20
-3 -11 -28 -34 -57 -52 -29 -18 -47 -34 -41 -36 11 -4 66 27 128 72 17 13 53
26 80 30 45 6 204 38 526 107 75 16 164 29 196 29 54 0 61 -3 88 -34 35 -39
172 -257 249 -396 56 -101 99 -225 92 -265 -3 -14 0 -26 8 -29 7 -3 14 -25 16
-52 2 -26 8 -49 14 -51 20 -7 -28 302 -50 325 -3 3 -6 -1 -6 -9 0 -8 -22 27
-48 76 -59 110 -237 399 -257 415 -7 6 -11 18 -8 26 10 25 -142 18 -295 -15
-184 -40 -468 -98 -517 -107 l-40 -7 26 29 c14 16 44 56 65 89 85 127 198 290
211 303 23 24 14 79 -34 199 -25 65 -55 147 -65 183 -21 73 -27 58 54 121 18
14 73 86 122 159 l90 132 100 -4 c109 -5 156 -19 373 -107 198 -79 300 -146
433 -280 130 -132 175 -200 221 -338 34 -102 28 -97 127 -107 86 -8 155 -47
248 -138 46 -45 84 -75 84 -66 0 18 -131 146 -180 175 -47 28 -134 53 -186 53
-46 0 -39 -11 -88 131 -35 99 -90 181 -194 291 -137 144 -278 231 -530 328
-181 69 -241 83 -329 78 l-72 -5 60 73 c33 40 64 76 69 79 12 8 -3 46 -40 100
l-30 44 20 60 c11 33 20 67 20 76 0 22 55 128 75 145 13 11 35 12 122 3 l106
-11 86 -59 c177 -119 388 -319 411 -388 18 -55 -7 -148 -63 -228 -17 -25 5
-37 73 -37 39 0 51 3 40 10 -8 5 -32 10 -52 10 -21 0 -38 2 -38 4 0 3 9 20 20
38 27 46 53 154 45 186 -4 15 -9 36 -11 47 -10 52 -362 358 -482 419 -33 17
-145 35 -219 36 -39 0 -46 -4 -72 -41 -17 -22 -31 -45 -34 -52 -2 -7 -31 2
-81 27 -169 82 -316 127 -316 96 0 -5 13 -10 30 -10 31 0 123 -34 264 -97 44
-20 83 -38 85 -39 4 -3 -15 -91 -31 -142 l-10 -32 -68 73 c-70 74 -146 122
-232 145 -61 17 -43 -5 24 -29 79 -29 163 -86 209 -141 49 -59 129 -177 129
-190 0 -6 -26 -43 -58 -82 -33 -39 -71 -90 -87 -114 -15 -23 -30 -42 -32 -42
-5 0 12 29 69 120 27 43 68 140 68 162 0 23 -28 -13 -34 -45 -7 -34 -78 -159
-187 -328 -38 -58 -69 -111 -69 -117 0 -6 -17 -23 -37 -36 l-37 -25 -48 145
-48 145 20 192 c11 106 27 227 35 269 9 42 20 125 26 184 5 59 13 134 18 167
9 63 -3 226 -20 292 -27 100 -163 360 -274 523 -20 30 -25 49 -25 102 0 70 -1
73 -82 179 -25 33 -57 85 -69 113 -48 108 -163 325 -197 370 -37 49 -53 57
-32 16 11 -20 11 -21 -2 -8 -8 8 -27 46 -43 83 -27 67 -28 71 -13 172 2 15 -8
25 -39 39 -24 11 -43 27 -43 35 -1 10 -15 0 -38 -26 -45 -51 -81 -66 -138 -57
-34 5 -59 0 -115 -21 -97 -37 -254 -143 -237 -160 2 -2 38 20 79 49 109 79
186 109 281 110 75 1 79 2 114 37 l36 37 38 -17 38 -16 -5 -65 c-5 -55 -2 -73
17 -110 l23 -45 -52 48 c-69 65 -169 112 -217 102 -42 -7 -185 -85 -292 -157
-40 -27 -88 -56 -105 -63 -28 -12 -29 -14 -9 -15 29 0 71 21 147 75 78 55 251
145 279 145 46 0 148 -65 217 -137 39 -41 77 -73 88 -73 18 0 32 -22 144 -235
9 -16 34 -69 57 -117 22 -48 63 -115 91 -148 37 -45 53 -73 57 -102 6 -45 5
-45 -54 -1 -18 13 -58 33 -90 44 -80 28 -335 78 -463 90 -58 5 -123 14 -145
19 -23 5 -77 12 -121 15 -77 7 -82 6 -135 -24 -30 -17 -68 -37 -85 -43 -61
-25 -281 -141 -300 -158 -25 -22 -262 -179 -370 -245 -44 -27 -90 -57 -102
-68 -21 -18 -22 -18 -31 0 -5 10 -24 72 -41 137 -17 65 -36 125 -42 133 -7 7
-10 15 -8 17 5 5 141 42 194 53 l40 8 7 105 c5 58 8 204 8 325 0 121 3 255 6
297 5 73 3 83 -26 147 -18 38 -29 74 -26 80 12 18 33 12 49 -12 18 -27 98 -53
194 -63 47 -5 77 -2 129 14 38 11 87 23 109 27 22 3 53 9 68 12 15 2 60 31
100 62 40 32 112 81 160 109 49 29 100 60 113 69 23 14 24 14 18 -2 -5 -13 -3
-16 7 -13 8 2 15 14 17 25 2 11 29 39 62 63 33 24 62 52 66 62 6 21 24 24 24
4 0 -26 89 -291 104 -311 22 -29 19 -11 -13 85 -16 49 -25 91 -21 100 5 8 32
77 61 153 29 76 56 140 61 143 4 3 8 17 8 32 1 15 7 38 15 52 13 23 14 16 15
-82 0 -111 11 -138 29 -70 20 72 68 148 136 212 61 59 125 138 125 155 0 4
-20 -20 -45 -53 -25 -33 -62 -72 -82 -88 l-37 -28 21 34 c11 19 55 100 98 180
43 80 96 173 117 206 52 83 162 324 197 430 l28 87 12 -33 c14 -43 2 -82 -86
-279 -70 -154 -108 -224 -155 -284 -17 -21 -28 -40 -25 -43 6 -6 67 79 106
148 39 70 128 267 156 346 l22 62 16 -57 c28 -97 56 -332 45 -363 -13 -36 15
-18 33 21 19 39 53 160 75 264 28 132 33 195 23 279 -5 44 -16 147 -25 229
-13 129 -85 487 -112 556 -6 17 -4 33 6 54 11 23 13 49 8 111 -24 290 -33 325
-117 451 -27 40 -86 107 -130 150 -57 53 -75 74 -58 70 22 -5 27 1 62 91 22
54 49 147 61 208 l23 111 7 -55 c9 -74 10 -448 1 -481 -5 -22 -3 -27 17 -32
13 -4 46 -23 73 -42 l50 -37 -45 7 c-59 9 -42 -6 31 -28 31 -10 62 -24 69 -32
18 -21 6 -108 -20 -152 -25 -43 -21 -51 9 -19 25 27 40 80 41 142 0 38 -4 44
-57 86 -32 25 -76 57 -99 72 l-41 27 -1 230 c-1 127 -4 242 -8 257 -26 129
-45 157 -126 192 -37 16 -71 22 -133 22 l-82 1 -17 51 c-24 75 -57 127 -96
154 -19 12 -76 62 -125 111 -50 48 -110 101 -134 116 -60 40 -120 37 -270 -15
-65 -22 -120 -40 -124 -40 -4 0 -7 9 -7 20 0 38 -22 121 -36 135 -8 8 -31 19
-52 25 -63 18 -304 42 -364 37 -45 -4 -58 -2 -58 9 0 21 -58 47 -124 55 -68 8
-163 -3 -257 -31 l-65 -20 -128 40 c-129 40 -179 46 -273 31z m234 -40 c49
-16 97 -31 108 -33 15 -3 3 -12 -45 -37 -35 -17 -70 -37 -77 -43 -9 -7 -33 -1
-87 21 -43 18 -113 37 -163 44 l-88 12 37 23 c79 49 193 53 315 13z m1519
-227 c21 -14 80 -65 129 -113 50 -49 104 -98 122 -110 34 -23 72 -83 96 -154
l15 -45 -46 -12 c-26 -6 -70 -26 -99 -45 l-52 -34 -6 47 c-13 107 -16 114 -62
163 -25 27 -53 49 -62 49 -10 0 -1 -14 27 -39 23 -21 48 -54 56 -73 8 -19 20
-106 26 -196 l12 -162 -42 -50 c-24 -28 -62 -64 -86 -80 l-43 -30 -55 54 c-31
30 -56 60 -56 66 0 6 -13 42 -30 79 -16 37 -32 87 -36 111 l-7 43 29 -7 c35
-9 61 -31 80 -68 14 -27 34 -38 34 -19 0 19 -48 76 -80 95 -31 18 -52 21 -170
21 -134 0 -135 0 -138 24 -2 14 9 42 30 72 55 81 166 119 351 119 56 0 86 4
82 10 -3 6 -48 10 -99 10 -83 0 -95 2 -112 22 -10 11 -60 55 -110 97 -50 42
-92 80 -93 86 -1 5 53 28 121 52 152 52 215 56 274 17z m-2749 -352 c15 -16
38 -47 50 -69 l23 -41 -53 -23 c-28 -12 -80 -25 -114 -27 -62 -4 -63 -4 -63
22 0 15 11 53 24 86 14 33 22 60 18 61 -4 0 2 4 13 9 39 17 73 11 102 -18z
m3338 -102 c23 -11 51 -30 63 -43 21 -23 21 -24 6 -117 -20 -125 -29 -159 -67
-258 -31 -81 -33 -83 -60 -78 -49 10 -257 148 -257 170 0 18 78 88 93 83 16
-5 21 -101 7 -127 -7 -13 -7 -20 -1 -20 32 0 45 136 16 160 -40 33 -141 -62
-137 -127 l3 -34 -38 25 c-21 14 -45 26 -55 26 -27 0 -29 16 -7 36 20 18 21
26 15 119 l-7 100 49 33 c71 48 151 71 251 71 65 1 94 -4 126 -19z m-239 -415
c116 -75 112 -70 55 -73 -28 -1 -68 -9 -91 -17 l-40 -14 0 74 c0 41 2 75 4 75
2 0 34 -20 72 -45z m-713 -109 c40 -13 128 -40 197 -61 69 -20 181 -55 250
-77 132 -42 220 -55 284 -41 74 16 49 28 -58 28 -57 0 -107 3 -111 7 -4 3 4
21 16 40 57 81 84 99 171 112 38 6 55 3 90 -15 66 -33 208 -182 261 -272 57
-98 74 -173 81 -348 5 -126 4 -139 -14 -162 -28 -35 -98 -67 -147 -67 -49 0
-197 70 -258 123 -22 19 -72 54 -110 79 -39 25 -77 52 -85 60 -8 8 -62 49
-120 92 -58 43 -118 91 -135 106 -34 33 -216 140 -355 209 -58 29 -132 57
-190 71 -148 35 -198 52 -220 75 l-21 22 88 17 c178 33 292 33 386 2z m-2710
-293 c-61 -99 -101 -204 -104 -273 -2 -51 -7 -69 -23 -82 -20 -16 -21 -15 -45
30 -29 58 -71 162 -71 178 0 6 15 18 33 25 60 25 165 99 197 139 43 54 50 44
13 -17z m3327 -370 c47 -31 105 -73 130 -94 25 -21 87 -58 139 -83 115 -56
155 -59 234 -17 46 24 57 27 61 14 19 -48 90 -385 101 -478 7 -60 19 -157 26
-215 22 -183 13 -271 -53 -513 -18 -68 -23 -78 -29 -57 -4 14 -7 46 -8 73 -1
67 -38 227 -72 316 -16 42 -29 94 -30 116 0 30 -2 35 -8 20 -6 -15 -16 4 -41
85 -33 106 -77 206 -87 197 -3 -3 9 -41 25 -84 17 -43 44 -121 61 -174 l31
-95 -18 -70 c-36 -134 -116 -298 -347 -714 -60 -107 -126 -226 -146 -265 l-38
-70 4 205 c5 298 8 314 73 434 72 132 96 187 143 325 63 184 86 293 113 533
27 237 32 373 16 398 -7 10 -10 -14 -10 -77 0 -128 -46 -517 -75 -638 -35
-150 -104 -334 -178 -480 l-66 -130 -3 95 c-4 148 2 251 16 266 17 16 31 235
28 414 -6 268 -93 780 -149 867 -16 25 -13 24 27 -10 25 -21 83 -63 130 -94z
m-3573 101 c22 -4 35 -18 57 -60 l29 -55 -55 -57 c-31 -31 -83 -86 -117 -122
-43 -46 -61 -60 -61 -46 0 10 -16 40 -35 66 -50 68 -85 149 -85 196 0 45 12
60 57 74 33 10 168 13 210 4z m801 -174 c42 -122 114 -266 189 -376 59 -88 62
-96 43 -101 -37 -10 -153 -70 -215 -111 -34 -24 -64 -37 -69 -32 -15 15 -20
420 -7 553 12 118 19 162 26 155 2 -2 17 -41 33 -88z m497 -464 c-46 -16 -205
-28 -205 -16 0 11 103 27 180 28 l65 1 -40 -13z m-235 -24 c0 -5 -17 -14 -39
-20 -57 -18 -62 -14 -11 8 54 23 50 22 50 12z m50 -59 c36 -53 123 -149 166
-184 34 -27 35 -29 13 -30 -13 0 -33 -5 -44 -10 -14 -7 -6 -8 31 -5 27 3 56 1
63 -3 7 -5 -18 -9 -56 -10 -37 -1 -82 -4 -99 -7 -21 -4 -34 -1 -44 10 -18 22
-11 26 54 33 58 6 88 23 41 23 -40 0 -138 -27 -203 -56 -45 -20 -67 -24 -102
-20 -43 6 -44 6 -25 -11 20 -17 20 -17 -34 -70 -30 -29 -52 -55 -50 -58 3 -2
31 20 62 50 54 50 59 53 87 44 l29 -11 -27 -22 c-15 -13 -38 -26 -52 -29 -14
-4 -44 -22 -65 -42 -39 -35 -27 -33 25 3 l25 17 -23 -29 c-12 -16 -22 -35 -22
-43 0 -10 -9 -13 -27 -11 -28 3 -28 3 -45 137 -9 74 -21 154 -26 178 -9 40 -8
45 17 62 84 59 241 129 291 130 8 1 26 -16 40 -36z m499 -41 c42 -32 105 -76
141 -97 36 -21 87 -54 114 -74 27 -19 99 -64 160 -99 61 -35 104 -62 96 -59
-117 39 -272 109 -345 156 -49 32 -104 65 -121 74 -17 9 -42 31 -55 49 -14 18
-38 50 -53 71 -16 20 -25 37 -21 37 5 0 42 -26 84 -58z m1314 -192 c5 -4 5
-29 2 -54 l-7 -47 -32 33 c-17 18 -53 52 -81 75 l-50 42 80 -20 c44 -11 84
-24 88 -29z m-1805 -25 c-1 -1 -21 -12 -43 -23 -34 -17 -45 -18 -70 -8 l-29
12 64 26 c56 22 66 24 73 11 5 -8 7 -16 5 -18z m-993 -281 c19 -120 51 -286
71 -369 19 -82 37 -160 40 -173 l5 -23 -43 22 c-24 13 -86 39 -138 59 l-95 36
-3 50 c-3 57 36 283 72 412 14 48 30 115 37 149 7 34 14 61 16 60 1 -2 19
-102 38 -223z m1244 166 c18 -15 30 -33 27 -39 -11 -18 -23 -13 -61 24 -19 20
-35 31 -35 25 0 -23 59 -71 82 -68 31 4 36 43 9 60 -21 13 -28 28 -13 28 4 0
17 -15 30 -33 28 -43 30 -133 3 -193 -39 -86 -179 -112 -259 -47 -53 43 -71
79 -78 159 l-6 70 38 16 c53 23 68 26 154 26 69 1 78 -1 109 -28z m-1192 -292
c-3 -8 -6 -5 -6 6 -1 11 2 17 5 13 3 -3 4 -12 1 -19z m40 -188 c-3 -16 -22 59
-31 125 -3 22 3 6 14 -35 11 -41 19 -82 17 -90z m3131 -152 c7 -29 25 -104 42
-167 34 -130 36 -178 10 -241 l-19 -45 0 34 c-1 20 -5 31 -9 25 -14 -15 -55
-246 -45 -253 5 -3 2 -28 -7 -59 l-16 -53 -22 93 c-82 351 -85 369 -74 406 21
67 117 312 123 312 3 0 11 -24 17 -52z m123 -313 c-26 -78 -28 -31 -3 58 14
51 17 57 20 32 1 -16 -7 -57 -17 -90z m-261 -156 c28 -122 24 -131 -89 -224
l-24 -20 7 65 c8 80 66 294 76 283 5 -4 18 -51 30 -104z m-1917 -50 c23 -12
100 -53 171 -92 125 -70 128 -72 95 -77 -19 -3 -36 -3 -39 1 -3 3 -23 12 -45
19 -63 20 -207 95 -278 144 -54 38 -66 52 -71 82 -4 19 -10 43 -14 52 -3 9 27
-11 67 -46 40 -34 91 -72 114 -83z m2092 -19 c-25 -58 -44 -91 -41 -75 3 17 8
47 12 68 4 21 12 41 20 44 7 2 21 28 31 56 11 31 19 43 21 31 1 -10 -18 -66
-43 -124z m-416 35 c13 -42 40 -109 61 -150 l38 -75 -42 -29 c-22 -15 -71 -45
-108 -65 -37 -20 -95 -60 -130 -88 -79 -63 -101 -74 -163 -83 -28 -5 -79 -16
-115 -26 -80 -23 -120 -24 -213 -3 -47 11 -81 25 -99 41 -18 17 -34 24 -47 20
-12 -3 -21 -1 -21 4 0 5 12 9 27 9 46 0 204 90 344 196 30 22 65 47 79 54 35
18 256 182 310 230 25 21 47 39 50 40 3 0 16 -34 29 -75z m236 -1291 c61 -8
146 -20 190 -25 216 -28 410 -79 457 -120 19 -17 20 -19 3 -11 -40 19 -170 34
-240 29 -38 -4 -99 -16 -135 -28 -79 -25 -284 -122 -294 -137 -4 -7 -38 -30
-77 -52 -38 -23 -112 -82 -164 -132 -53 -50 -98 -88 -101 -85 -15 15 -85 229
-109 332 -21 90 -24 119 -15 130 6 7 42 26 80 40 38 15 80 35 94 46 55 43 86
45 311 13z m-491 -229 c20 -89 76 -266 110 -345 4 -10 -4 -26 -22 -43 l-29
-28 -40 88 c-22 48 -48 111 -57 138 -14 45 -56 235 -56 255 0 8 62 51 67 47 1
-1 13 -52 27 -112z m-1874 -344 c-11 -14 -23 -33 -26 -42 -5 -15 -72 -54 -80
-46 -2 2 0 21 4 44 6 32 17 48 62 85 l55 44 3 -29 c2 -20 -4 -39 -18 -56z
m-129 -78 c-11 -40 -44 -79 -71 -84 -8 -2 -32 0 -53 5 -32 6 -37 9 -26 22 21
26 154 114 157 105 2 -5 -2 -27 -7 -48z m113 -26 c-39 -76 -71 -104 -159 -137
l-25 -10 15 36 c8 20 26 49 40 66 14 16 25 33 25 37 0 4 9 7 21 8 11 1 35 10
52 21 42 25 51 18 31 -21z m-240 -72 c26 -8 53 -12 58 -9 5 3 0 -13 -12 -36
-25 -49 -73 -74 -163 -85 l-57 -6 20 33 c23 40 89 118 98 118 4 0 29 -7 56
-15z m322 -316 c43 -46 95 -69 156 -69 l53 0 -46 -42 c-73 -68 -119 -165 -167
-348 l-9 -35 -22 47 c-37 82 -62 197 -64 299 -2 89 0 98 26 137 15 23 31 42
35 42 5 0 21 -14 38 -31z m1296 -44 c50 -36 76 -97 77 -184 l1 -55 -35 34
c-44 43 -44 36 1 -31 33 -49 36 -59 30 -102 -3 -27 -16 -73 -30 -102 -29 -63
-63 -85 -132 -85 l-47 0 21 23 c12 13 22 28 22 35 0 6 23 33 50 60 46 45 50
53 50 96 0 25 -9 68 -19 96 -11 27 -15 53 -10 56 16 9 10 55 -11 89 -31 50
-79 68 -165 63 -41 -3 -86 -12 -106 -23 -19 -10 -63 -21 -99 -25 -47 -6 -69
-13 -81 -29 -20 -24 -33 -115 -24 -165 5 -25 3 -40 -8 -50 -35 -35 -32 -157 5
-230 l20 -39 -37 6 c-102 17 -177 124 -177 256 -1 75 28 153 62 171 22 12 25
8 34 -41 6 -37 63 -135 72 -126 3 3 -8 32 -25 66 -31 60 -41 139 -23 167 4 7
36 27 71 45 63 33 68 34 182 34 98 0 115 2 106 14 -9 11 5 12 85 10 88 -4 100
-7 140 -34z m-104 -36 c34 -12 72 -63 72 -98 0 -27 -6 -26 -42 4 -24 21 -40
25 -89 25 -38 0 -58 -4 -54 -10 3 -5 30 -10 59 -10 50 0 56 -3 89 -39 37 -41
57 -93 57 -149 0 -23 -10 -43 -34 -70 -19 -20 -37 -34 -40 -31 -3 3 -1 32 4
65 17 101 15 114 -20 114 -28 0 -29 2 -27 36 2 34 -1 37 -37 50 -56 20 -70 10
-18 -12 46 -21 47 -27 18 -98 l-13 -31 -17 40 c-17 41 -53 85 -68 85 -5 0 2
-15 16 -32 13 -18 30 -52 37 -75 7 -24 16 -43 20 -43 12 0 37 28 44 49 4 13
12 17 31 13 25 -5 26 -6 19 -66 -9 -74 -18 -94 -51 -106 -46 -18 -89 -11 -132
20 -46 33 -52 35 -52 20 0 -6 21 -24 48 -41 39 -25 55 -30 92 -26 25 2 53 7
63 11 13 6 17 3 17 -13 0 -34 -74 -81 -127 -81 -59 0 -99 20 -158 80 l-48 49
18 41 c10 22 19 40 21 40 2 0 19 -9 38 -21 29 -17 45 -20 86 -14 27 4 50 10
50 13 0 3 -10 16 -22 29 -18 19 -23 39 -27 96 -2 49 -6 66 -12 52 -12 -32 -10
-93 5 -130 17 -41 9 -50 -39 -41 -50 10 -75 47 -75 111 0 60 11 73 64 82 20 3
39 10 42 14 10 17 -62 9 -94 -11 -33 -20 -33 -21 -31 -93 2 -64 -2 -80 -26
-121 l-28 -48 59 -59 c71 -72 121 -94 196 -85 29 3 84 6 121 5 48 0 76 4 94
16 31 21 36 16 27 -30 -21 -113 -168 -162 -308 -104 -85 34 -82 46 11 51 54 3
95 12 133 28 68 30 43 39 -29 10 -103 -40 -269 -19 -313 40 -28 39 -43 135
-28 190 l12 45 14 -30 c12 -28 13 -27 6 25 -4 30 -6 86 -5 125 2 86 19 105 94
105 27 0 49 4 49 9 0 13 100 39 156 40 28 1 65 -4 82 -10z m278 -176 c22 -51
18 -140 -10 -199 -27 -59 -91 -134 -113 -134 -19 0 -14 28 21 125 22 59 26 87
26 184 l0 115 31 -30 c17 -16 38 -43 45 -61z m-1703 -659 c18 -9 64 -38 103
-64 l72 -47 -15 -34 c-10 -25 -12 -39 -4 -51 9 -15 5 -19 -29 -28 -22 -6 -40
-16 -40 -23 0 -18 70 -87 88 -87 10 0 3 12 -21 34 -43 39 -46 51 -14 60 35 9
37 8 37 -31 0 -29 8 -43 40 -74 22 -21 40 -45 40 -54 0 -39 149 -361 157 -338
2 6 -18 59 -46 117 -27 58 -47 106 -43 106 4 0 16 -18 26 -40 13 -27 26 -40
40 -40 28 0 96 -69 96 -97 0 -13 -16 -40 -35 -61 l-35 -37 -23 28 c-41 49
-107 192 -128 278 -12 46 -23 86 -25 88 -2 2 -19 -4 -38 -13 -31 -15 -39 -15
-69 -2 -42 17 -45 21 -57 85 -7 39 -22 66 -64 117 -55 66 -86 133 -86 184 0
45 20 51 73 24z m233 -441 c-10 -10 -19 5 -10 18 6 11 8 11 12 0 2 -7 1 -15
-2 -18z m12 -58 c8 -22 22 -61 32 -87 l19 -48 -27 0 c-19 0 -23 -3 -15 -11 6
-6 19 -9 29 -7 14 3 29 -13 57 -61 20 -35 35 -66 33 -69 -3 -2 -21 -1 -40 2
-48 9 -86 42 -86 74 0 16 -12 37 -33 56 -35 32 -77 126 -77 172 0 24 3 25 47
22 45 -3 48 -5 61 -43z m709 -20 l78 -24 0 -125 c0 -125 0 -126 -25 -135 -56
-22 -139 -41 -153 -35 -26 10 -67 100 -97 215 -16 61 -27 116 -24 121 11 18
143 8 221 -17z m452 -52 c1 -20 -4 -23 -34 -23 -40 0 -40 0 -19 43 30 58 38
64 45 31 4 -16 7 -39 8 -51z m-221 49 c-27 -8 -48 -19 -48 -24 0 -9 27 -4 119
23 35 10 72 19 82 19 19 0 19 -1 0 -37 -10 -21 -29 -71 -42 -111 -27 -83 -23
-92 43 -92 27 0 40 -6 48 -19 12 -23 14 -148 2 -155 -14 -8 -121 21 -154 43
-88 57 -91 61 -99 168 -4 54 -10 117 -14 140 -8 45 -13 41 60 56 45 10 47 4 3
-11z m-701 -108 c-2 -2 -18 11 -36 30 -29 30 -31 36 -19 55 12 21 14 20 36
-30 12 -28 21 -53 19 -55z m566 -205 c5 -19 3 -21 -25 -15 -17 3 -40 6 -52 7
-13 0 -6 5 19 14 54 18 52 18 58 -6z m280 -96 c76 -16 77 -17 89 -55 12 -42 9
-52 -16 -42 -10 4 -16 18 -16 41 0 20 -4 32 -10 28 -5 -3 -10 -19 -10 -36 0
-19 -5 -29 -15 -29 -8 0 -15 -4 -15 -10 0 -5 4 -10 9 -10 5 0 12 -37 16 -82 8
-87 15 -109 47 -144 19 -21 19 -21 -26 -34 -69 -19 -94 -2 -132 90 -18 41 -35
86 -39 100 -6 22 -2 20 25 -13 18 -21 35 -36 38 -33 5 6 -37 64 -67 94 -10 9
-25 45 -34 80 l-15 63 24 9 c31 12 31 24 0 16 -25 -6 -36 7 -36 45 0 16 8 12
53 -21 40 -31 70 -44 130 -57z m-907 69 c6 -4 16 -22 22 -40 6 -18 21 -47 33
-63 21 -30 21 -31 3 -65 l-18 -34 -34 33 c-43 40 -92 115 -92 139 0 27 60 48
86 30z m605 -8 c36 -6 37 -8 65 -90 l27 -83 -37 -46 c-21 -25 -39 -45 -42 -45
-6 0 14 38 39 73 30 43 13 43 -22 0 -31 -37 -49 -79 -38 -89 13 -13 50 10 77
48 26 35 31 38 36 22 4 -11 22 -57 41 -103 18 -46 33 -85 33 -87 0 -4 -41 3
-69 12 -11 4 -10 8 5 18 32 24 10 27 -34 5 -50 -25 -89 -20 -94 13 -2 13 -25
38 -53 60 -68 51 -85 87 -92 196 -6 89 -6 90 18 95 38 7 101 7 140 1z m-532
-47 c23 -48 26 -61 11 -52 -10 6 -50 78 -50 90 0 3 4 5 9 5 5 0 19 -19 30 -43z
m51 -266 c0 -3 -10 -19 -21 -36 -12 -16 -18 -22 -15 -12 3 10 6 35 6 55 1 35
2 36 15 18 8 -11 15 -22 15 -25z m110 -242 c0 -5 -14 -9 -31 -9 l-32 0 7 46
c3 26 6 54 7 63 0 16 49 -83 49 -100z m-164 50 c11 -27 21 -38 31 -35 30 12 6
-21 -65 -88 -39 -38 -75 -67 -78 -64 -6 6 -44 141 -47 168 -1 8 5 15 13 15 8
0 17 3 20 6 3 4 28 13 55 22 28 8 51 15 53 16 1 1 9 -17 18 -40z"/>
<path d="M5840 6676 c0 -2 18 -50 39 -108 46 -121 61 -176 95 -352 27 -135 36
-162 36 -106 0 92 -75 385 -131 508 -23 52 -39 75 -39 58z"/>
<path d="M3115 6147 c-3 -12 -2 -34 4 -47 9 -22 10 -19 10 23 1 51 -5 61 -14
24z"/>
<path d="M3210 6112 c0 -26 4 -41 10 -37 13 8 13 45 0 65 -7 11 -10 3 -10 -28z"/>
<path d="M3145 6050 c3 -5 15 -10 26 -10 10 0 19 5 19 10 0 6 -12 10 -26 10
-14 0 -23 -4 -19 -10z"/>
<path d="M5102 5275 c0 -38 3 -79 8 -90 11 -26 11 100 0 135 -6 18 -8 5 -8
-45z"/>
<path d="M3772 2573 c15 -15 30 -24 33 -21 8 7 -35 48 -49 48 -6 0 2 -12 16
-27z"/>
<path d="M3460 1153 c-23 -29 -22 -41 2 -57 12 -7 28 -5 57 9 23 10 41 22 41
27 0 11 -2 11 -45 -8 -20 -8 -40 -12 -43 -9 -13 13 17 40 47 43 38 4 31 22 -9
22 -19 0 -36 -9 -50 -27z"/>
<path d="M3701 1158 c25 -64 56 -108 76 -108 11 0 9 7 -9 28 -12 15 -34 51
-47 80 -32 67 -47 68 -20 0z"/>
<path d="M2905 8866 c-107 -35 -217 -98 -279 -160 -57 -58 -42 -63 21 -6 77
67 241 149 316 157 32 3 57 10 57 14 0 13 -69 10 -115 -5z"/>
<path d="M2499 8740 c-80 -14 -153 -62 -206 -137 -45 -62 -56 -83 -45 -83 5 0
28 27 50 59 40 57 119 120 170 136 13 4 55 7 93 6 38 0 69 4 69 9 0 6 -10 10
-22 10 -13 0 -32 2 -43 4 -11 2 -41 0 -66 -4z"/>
<path d="M3304 8528 c-10 -11 -45 -41 -78 -65 -53 -39 -63 -43 -117 -43 -34 0
-84 9 -116 20 -68 24 -92 25 -119 6 -27 -20 -14 -28 23 -14 22 8 38 9 55 1 22
-9 21 -11 -24 -31 -25 -11 -51 -30 -57 -41 -12 -22 -2 -28 16 -10 8 8 12 6 16
-7 7 -24 76 -367 82 -409 2 -18 112 -230 183 -355 14 -25 76 -122 139 -217
190 -289 404 -486 755 -692 92 -54 98 -56 98 -42 0 5 -34 29 -75 53 -301 172
-559 394 -706 608 -225 327 -363 591 -395 755 -39 207 -56 289 -63 308 -7 18
-2 24 30 39 31 14 56 16 123 11 78 -5 88 -4 128 20 50 29 138 104 138 118 0
15 -16 10 -36 -13z"/>
<path d="M4847 8273 c9 -16 23 -35 30 -44 8 -10 38 -75 66 -146 38 -92 66
-145 97 -182 24 -29 46 -47 48 -41 2 6 -14 33 -37 60 -23 27 -41 54 -41 60 0
24 -106 247 -134 283 -34 43 -54 50 -29 10z"/>
<path d="M2521 8079 c-26 -43 -66 -162 -86 -259 -15 -68 -23 -265 -13 -276 3
-2 8 45 12 105 7 122 48 300 90 395 30 66 28 86 -3 35z"/>
<path d="M2413 7198 c5 -329 10 -383 57 -621 11 -55 27 -127 36 -160 27 -108
108 -357 116 -357 12 0 9 26 -7 67 -32 82 -95 310 -119 431 -56 280 -58 304
-63 640 -3 205 -9 322 -15 322 -7 0 -8 -111 -5 -322z"/>
<path d="M6066 7135 c3 -11 23 -73 45 -137 31 -93 42 -152 59 -290 11 -95 24
-189 30 -208 13 -44 13 -316 0 -393 -5 -32 -21 -84 -35 -114 -14 -31 -23 -58
-21 -61 9 -8 55 108 66 165 13 71 13 354 0 408 -5 22 -19 116 -30 209 -15 125
-30 195 -56 275 -28 87 -79 213 -58 146z"/>
<path d="M3617 5887 c-46 -90 -55 -133 -33 -175 17 -32 74 -82 95 -82 37 0 44
185 10 275 -11 30 -24 55 -27 55 -4 0 -24 -33 -45 -73z m66 -107 c1 -36 -2
-82 -6 -102 l-8 -37 -34 38 c-51 56 -53 85 -14 167 l32 69 15 -35 c8 -19 15
-64 15 -100z"/>
<path d="M2968 5843 c-22 -6 -23 -17 -3 -33 13 -10 19 -10 35 5 34 31 21 42
-32 28z"/>
<path d="M3064 5835 c-7 -17 4 -37 17 -30 12 8 12 45 -1 45 -6 0 -13 -7 -16
-15z"/>
<path d="M3027 5833 c-12 -11 -8 -23 8 -23 8 0 15 7 15 15 0 16 -12 20 -23 8z"/>
<path d="M1941 5504 c-1 -5 15 -68 35 -140 63 -232 196 -461 304 -527 24 -15
14 -2 -33 42 -112 106 -188 245 -252 462 -45 153 -53 177 -54 163z"/>
<path d="M2794 5402 c45 -89 60 -141 107 -371 21 -107 41 -197 44 -199 17 -17
-23 218 -66 393 -20 80 -95 245 -111 245 -4 0 7 -30 26 -68z"/>
<path d="M3829 5261 c-32 -26 -23 -31 31 -21 25 5 66 9 93 10 60 0 61 15 1 24
-75 10 -100 7 -125 -13z"/>
<path d="M3955 4403 c29 -69 29 -161 -1 -238 -7 -17 -6 -18 8 -7 18 14 38 93
38 147 0 40 -28 115 -42 115 -6 0 -7 -8 -3 -17z"/>
<path d="M4655 4320 c-50 -51 -171 -114 -260 -135 -38 -9 -98 -25 -133 -35
-110 -35 -142 -23 -182 65 -16 35 -19 37 -19 15 -1 -39 48 -108 81 -115 31 -7
103 2 131 17 10 5 52 16 95 24 125 24 298 120 332 185 17 31 -3 22 -45 -21z"/>
<path d="M3810 4185 c-40 -54 -48 -82 -16 -56 20 17 69 101 63 108 -3 2 -24
-21 -47 -52z"/>
<path d="M2963 4138 c-17 -22 -63 -147 -78 -211 -14 -58 -21 -176 -10 -165 3
2 9 39 15 81 6 42 19 100 29 129 l18 53 7 -173 c4 -96 10 -180 13 -188 8 -20
25 -17 19 4 -12 39 -17 341 -7 407 11 73 10 83 -6 63z"/>
<path d="M5628 2210 c-59 -10 -170 -46 -223 -73 -22 -11 -96 -58 -165 -105
-69 -47 -181 -119 -250 -160 -69 -41 -186 -118 -260 -171 -74 -52 -168 -117
-208 -144 -41 -27 -72 -51 -69 -53 7 -7 124 66 284 177 78 55 201 136 275 180
73 45 181 114 239 155 59 41 129 85 156 98 84 43 212 78 285 80 66 1 84 8 52
20 -19 7 -54 6 -116 -4z"/>
<path d="M5796 2119 c23 -25 157 -120 162 -114 8 8 -11 25 -88 79 -84 59 -105
69 -74 35z"/>
<path d="M2412 1943 c-5 -10 -24 -64 -42 -120 l-32 -101 -81 -22 c-238 -64
-344 -133 -473 -308 -11 -15 -16 -14 -48 17 -32 31 -37 33 -66 22 -46 -15
-147 -100 -237 -195 -82 -88 -151 -197 -186 -294 -11 -31 -21 -58 -22 -59 -1
-2 -20 5 -43 13 l-41 17 -71 -42 c-129 -77 -247 -204 -349 -374 -60 -100 -75
-138 -131 -342 -35 -127 -43 -171 -26 -154 2 2 27 84 55 182 56 196 80 250
169 383 103 154 317 336 376 318 42 -12 298 -150 333 -178 19 -16 67 -72 105
-124 38 -51 118 -144 177 -205 102 -104 110 -110 128 -97 107 79 153 124 163
161 8 30 8 46 -2 67 -24 49 -56 57 -255 60 l-181 4 -35 53 c-20 29 -53 68 -75
86 -32 26 -243 151 -274 161 -13 5 44 136 87 204 83 130 212 262 319 324 l37
23 42 -40 c49 -47 244 -183 263 -183 7 0 14 3 16 8 3 7 109 42 196 64 67 18
56 40 -40 78 -95 37 -204 54 -297 44 l-64 -6 32 41 c96 120 202 189 367 235
50 14 98 28 106 31 12 5 11 -11 -8 -97 -47 -207 -53 -470 -18 -733 8 -60 19
-202 24 -315 5 -113 16 -245 25 -295 17 -98 64 -255 77 -255 12 0 10 7 -17 95
-39 121 -54 230 -65 450 -5 110 -17 259 -26 330 -21 153 -23 467 -5 592 15
100 46 227 66 268 13 26 75 209 75 221 0 11 -20 2 -28 -13z m-331 -584 c20 -5
61 -20 90 -33 l53 -23 -120 -40 -119 -40 -104 71 -103 71 53 6 c64 8 199 1
250 -12z m-64 -827 c31 -17 42 -41 36 -80 -4 -26 -21 -45 -79 -92 -41 -33 -78
-60 -83 -60 -10 0 -241 237 -241 247 0 13 342 -1 367 -15z"/>
<path d="M7538 1908 c-41 -9 -55 -19 -105 -77 -32 -36 -82 -92 -112 -123 -30
-32 -48 -58 -41 -58 14 0 51 37 156 153 l70 79 76 11 c67 9 89 8 180 -11 57
-12 133 -37 171 -55 42 -21 67 -29 67 -21 0 21 -103 65 -211 90 -106 25 -172
28 -251 12z"/>
<path d="M4318 1365 c-16 -82 -9 -276 12 -365 23 -96 59 -198 71 -206 13 -8
11 8 -7 57 -50 142 -57 182 -63 369 -4 125 -8 172 -13 145z"/>
<path d="M4685 940 c-45 -4 -95 -15 -115 -25 -19 -10 -46 -21 -60 -25 -24 -6
-25 -9 -22 -71 l4 -65 -40 -12 c-48 -15 -124 -15 -194 -2 -132 26 -158 32
-158 39 0 5 23 37 50 71 48 60 59 81 43 80 -5 -1 -35 -35 -67 -77 -57 -72 -59
-76 -40 -90 10 -8 30 -17 42 -20 32 -8 253 -121 271 -138 11 -11 8 -14 -20
-20 -19 -4 -79 -25 -135 -46 -102 -40 -173 -93 -161 -121 11 -26 220 -284 249
-307 37 -30 55 -13 32 30 -8 16 -14 40 -14 54 0 26 2 26 41 20 23 -4 89 -29
146 -56 77 -36 119 -63 164 -105 72 -69 90 -65 24 5 -59 63 -261 171 -322 171
l-38 1 50 45 c47 42 197 124 228 124 7 0 42 -17 78 -39 35 -21 81 -44 101 -50
34 -11 36 -14 31 -46 -7 -44 6 -237 17 -255 15 -25 18 -7 11 63 -7 65 -5 71
28 137 38 74 31 70 106 55 33 -7 32 -31 -5 -61 -39 -33 -66 -117 -51 -156 6
-16 15 -28 21 -28 13 0 13 6 -1 32 -8 15 -8 31 0 59 13 41 56 99 74 99 8 0 12
20 12 54 0 40 6 62 21 83 28 38 91 73 133 73 31 0 131 -47 131 -61 0 -16 -33
-17 -64 -2 -21 10 -44 13 -61 9 -36 -9 -110 -79 -126 -119 -7 -17 -21 -42 -32
-54 -22 -25 -33 -101 -23 -157 12 -61 24 -40 18 32 -3 51 0 76 12 100 22 42
25 40 13 -7 -10 -35 -8 -44 16 -80 15 -23 22 -43 17 -46 -13 -8 -13 -35 -1
-35 5 0 13 10 17 22 l7 23 8 -23 c14 -38 24 -24 25 33 1 60 -7 70 -22 28 l-10
-28 -23 35 c-36 57 -16 111 54 144 33 16 125 22 125 9 0 -4 -21 -29 -47 -55
l-47 -48 -23 37 c-28 46 -31 22 -4 -29 11 -19 18 -38 15 -41 -3 -3 14 -17 39
-31 46 -27 105 -34 125 -14 15 15 52 -16 52 -44 0 -35 28 -17 49 32 12 27 25
50 29 50 10 0 42 -65 42 -85 0 -33 40 -11 118 66 45 45 82 89 82 99 0 17 -39
40 -135 79 -16 7 -43 30 -58 53 -30 43 -50 47 -21 4 9 -15 14 -29 11 -33 -3
-3 1 -12 9 -21 19 -19 13 -61 -17 -108 -28 -46 -38 -43 -32 10 11 94 -33 153
-107 143 -48 -6 -56 17 -12 34 15 6 35 15 44 20 10 5 35 9 56 9 58 0 256 38
313 60 28 10 58 16 67 13 11 -5 14 -2 9 10 -4 10 -2 16 5 14 26 -5 15 24 -26
69 -54 59 -71 55 -19 -5 29 -34 33 -45 22 -52 -19 -12 -56 -10 -104 5 -36 11
-38 13 -17 20 47 16 13 64 -119 166 -66 51 -110 76 -174 99 -105 38 -208 56
-268 47 l-44 -7 -13 -62 c-7 -34 -16 -66 -20 -70 -4 -5 -28 -5 -54 -2 l-46 7
1 57 c1 31 0 77 -1 103 -3 46 -4 47 -59 71 -66 29 -126 36 -236 27z m230 -44
l40 -17 -27 -22 c-14 -12 -44 -36 -66 -54 -56 -46 -59 -68 -19 -169 l34 -84
-81 0 c-45 0 -85 4 -91 8 -5 4 -11 52 -13 107 -6 196 -1 177 -52 197 -25 9
-54 20 -65 23 -19 7 -18 8 5 17 33 14 193 25 250 17 25 -3 63 -13 85 -23z
m-281 -50 c32 -13 36 -18 27 -35 -12 -22 -80 -51 -120 -51 -28 0 -29 2 -33 56
l-3 56 46 -5 c26 -3 63 -13 83 -21z m331 -81 c1 -41 -2 -75 -6 -75 -24 0 -119
45 -119 56 0 14 111 106 119 99 2 -3 5 -39 6 -80z m337 20 c100 -21 200 -67
281 -129 81 -62 144 -123 135 -131 -3 -3 -33 3 -66 14 -61 21 -105 18 -139
-10 -32 -28 -102 -129 -88 -129 8 0 27 19 43 43 63 90 97 105 175 76 52 -19
43 -19 -45 -3 -68 13 -11 -14 80 -36 50 -13 92 -27 92 -31 0 -14 -187 -48
-347 -64 -62 -6 -63 -6 -154 50 -51 30 -94 55 -97 55 -3 0 5 -11 18 -25 21
-22 22 -25 5 -25 -46 0 -145 -83 -145 -122 -1 -35 -14 -38 -105 -19 -101 21
-150 39 -215 81 -25 16 -88 45 -140 65 -94 36 -150 77 -150 110 0 12 9 11 45
-7 24 -13 45 -29 45 -37 0 -11 13 -12 65 -7 78 8 95 14 95 32 0 11 4 12 19 4
11 -5 53 -10 93 -10 40 0 78 -4 84 -8 6 -4 27 -33 47 -65 21 -32 44 -60 53
-64 40 -15 214 112 303 221 62 76 63 77 46 102 -9 14 -44 38 -78 54 -69 32
-55 37 45 15z m-64 -29 c127 -64 116 -89 -40 -94 l-99 -4 7 29 c21 93 25 103
45 103 11 0 50 -15 87 -34z m-563 -69 c7 -104 1 -144 -25 -152 -61 -19 -134 4
-215 70 -22 18 -81 53 -130 79 -50 26 -81 44 -70 41 51 -16 165 -17 231 -2 38
9 88 19 111 22 22 4 49 13 60 20 10 8 21 15 24 15 4 0 10 -42 14 -93z m363
-34 c46 -8 121 -13 167 -11 l83 3 -19 -27 c-43 -60 -235 -208 -271 -208 -16 0
-80 107 -133 223 -19 43 -35 80 -35 81 0 2 28 -8 62 -21 34 -14 100 -32 146
-40z m-611 -101 c2 -48 40 -83 123 -113 l62 -22 -87 -45 c-48 -25 -111 -68
-142 -97 -55 -53 -56 -54 -51 -100 7 -57 14 -63 -126 115 l-107 135 34 31 c18
17 67 43 108 59 74 28 184 72 184 74 0 0 1 -16 2 -37z m875 -229 c10 -9 23
-30 29 -48 7 -17 21 -36 33 -41 49 -22 12 -155 -45 -162 -26 -3 -26 -2 -21 46
2 31 0 52 -7 56 -7 5 -11 -7 -11 -38 0 -54 -12 -64 -39 -35 l-20 22 54 59 c30
33 55 63 55 68 0 30 -114 27 -174 -5 -64 -34 -60 -11 10 55 49 46 59 52 86 46
18 -3 40 -14 50 -23z m-386 -41 c8 -5 2 -21 -17 -52 l-29 -45 0 53 c0 43 3 52
18 52 9 0 22 -4 28 -8z m513 -2 c43 -22 52 -128 18 -208 l-12 -30 -27 23 c-27
23 -27 25 -13 59 25 59 20 101 -15 126 -16 12 -30 26 -30 31 0 12 56 12 79 -1z
m220 -66 c34 -15 61 -31 61 -36 0 -5 -35 -43 -77 -84 l-77 -74 -21 42 -21 43
28 53 c15 30 28 60 28 68 0 19 10 18 79 -12z"/>
<path d="M5253 509 c-18 -5 -33 -14 -33 -20 0 -7 7 -8 18 -4 9 4 45 9 79 12
34 3 60 10 57 14 -7 11 -79 10 -121 -2z"/>
<path d="M2224 442 c-77 -64 -211 -205 -250 -262 -29 -42 -94 -163 -94 -175 0
-3 4 -5 10 -5 5 0 18 21 29 46 40 90 111 181 241 308 72 71 129 130 127 133
-3 2 -31 -18 -63 -45z"/>
<path d="M3720 287 c-19 -7 -35 -19 -35 -27 0 -19 42 -40 80 -39 l30 0 -25 11
c-14 6 -34 14 -45 18 -18 7 -17 9 10 19 17 6 39 15 50 20 18 9 18 10 -5 10
-14 0 -41 -5 -60 -12z"/>
<path d="M2975 218 c-10 -28 -10 -211 0 -214 6 -3 10 35 10 101 l0 105 20 -36
c53 -95 108 -174 122 -174 10 0 5 14 -19 48 -19 26 -51 75 -72 109 -40 68 -54
81 -61 61z"/>
<path d="M4424 148 c-29 -31 -63 -132 -49 -146 9 -10 17 7 26 55 6 28 20 58
35 74 14 15 25 32 22 39 -2 6 -17 -4 -34 -22z"/>
<path d="M3800 140 c-18 -43 -9 -45 18 -4 16 25 18 34 8 34 -7 0 -19 -14 -26
-30z"/>
<path d="M5275 20 c-26 -17 -27 -20 -9 -20 11 0 29 9 39 20 23 26 9 26 -30 0z"/>
</g>
</svg>
